# Blender 4.4.3
# www.blender.org
mtllib scene.mtl
o Cube
v 0.900000 0.900000 -1.000000
v 0.900000 1.000000 -0.900000
v 1.000000 0.900000 -0.900000
v 0.900000 -1.000000 -0.900000
v 0.900000 -0.900000 -1.000000
v 1.000000 -0.900000 -0.900000
v 1.000000 0.900000 0.900000
v 0.900000 1.000000 0.900000
v 0.900000 0.900000 1.000000
v 1.000000 -0.900000 0.900000
v 0.900000 -0.900000 1.000000
v 0.900000 -1.000000 0.900000
v -0.900000 0.900000 -1.000000
v -1.000000 0.900000 -0.900000
v -0.900000 1.000000 -0.900000
v -1.000000 -0.900000 -0.900000
v -0.900000 -0.900000 -1.000000
v -0.900000 -1.000000 -0.900000
v -1.000000 0.900000 0.900000
v -0.900000 0.900000 1.000000
v -0.900000 1.000000 0.900000
v -0.900000 -1.000000 0.900000
v -0.900000 -0.900000 1.000000
v -1.000000 -0.900000 0.900000
vn -0.0000 -1.0000 -0.0000
vn -1.0000 -0.0000 -0.0000
vn -0.0000 -0.0000 1.0000
vn -0.0000 1.0000 -0.0000
vn 1.0000 -0.0000 -0.0000
vn 0.5774 0.5774 -0.5774
vn 0.5774 -0.5774 -0.5774
vn 0.5774 0.5774 0.5774
vn 0.5774 -0.5774 0.5774
vn -0.5774 0.5774 -0.5774
vn -0.5774 -0.5774 -0.5774
vn -0.5774 0.5774 0.5774
vn -0.5774 -0.5774 0.5774
vn -0.7071 -0.7071 -0.0000
vn -0.0000 -0.7071 -0.7071
vn 0.7071 -0.0000 -0.7071
vn -0.7071 -0.0000 0.7071
vn 0.7071 -0.0000 0.7071
vn -0.7071 -0.0000 -0.7071
vn -0.0000 0.7071 0.7071
vn 0.7071 0.7071 -0.0000
vn -0.0000 -0.7071 0.7071
vn -0.7071 0.7071 -0.0000
vn -0.0000 0.7071 -0.7071
vn 0.7071 -0.7071 -0.0000
vn -0.0000 -0.0000 -1.0000
vt 0.650000 0.350000
vt 0.650000 0.650000
vt 0.350000 0.650000
vt 0.350000 0.350000
vt 0.650000 0.316667
vt 0.350000 0.316667
vt 0.350000 0.016667
vt 0.650000 0.016667
vt 0.316667 0.650000
vt 0.016667 0.650000
vt 0.016667 0.350000
vt 0.316667 0.350000
vt 0.316667 0.016667
vt 0.316667 0.316667
vt 0.016667 0.316667
vt 0.016667 0.016667
vt 0.316667 0.983333
vt 0.016667 0.983333
vt 0.016667 0.683333
vt 0.316667 0.683333
vt 0.333333 0.016667
vt 0.316667 0.000000
vt 0.666667 0.650000
vt 0.650000 0.666667
vt 0.016667 0.000000
vt 0.000000 0.016667
vt 0.350000 0.666667
vt 0.333333 0.650000
vt 0.333333 0.316667
vt 0.316667 0.333333
vt 0.650000 0.333333
vt 0.666667 0.350000
vt 0.016667 0.333333
vt 0.000000 0.316667
vt 0.333333 0.350000
vt 0.350000 0.333333
vt 0.316667 1.000000
vt 0.016667 1.000000
vt 0.016667 0.333333
vt 0.316667 0.333333
vt 0.350000 0.000000
vt 0.650000 0.000000
vt 0.650000 0.983333
vt 0.350000 0.983333
vt 0.350000 0.683333
vt 0.650000 0.683333
s 0
usemtl Material
f 18/1/1 4/2/1 12/3/1 22/4/1
f 24/5/2 19/6/2 14/7/2 16/8/2
f 11/9/3 9/10/3 20/11/3 23/12/3
f 2/13/4 15/14/4 21/15/4 8/16/4
f 6/17/5 3/18/5 7/19/5 10/20/5
f 17/43/26 13/44/26 1/45/26 5/46/26
usemtl Edge_Color
f 1/21/6 2/13/6 3/22/6
f 4/2/7 5/23/7 6/24/7
f 7/25/8 8/16/8 9/26/8
f 10/27/9 11/28/9 12/3/9
f 13/29/10 14/30/10 15/14/10
f 16/31/11 17/32/11 18/1/11
f 19/33/12 20/34/12 21/15/12
f 22/4/13 23/35/13 24/36/13
f 18/1/14 22/4/14 24/36/14 16/31/14
f 4/2/15 18/1/15 17/32/15 5/23/15
f 3/18/16 6/17/16 5/37/16 1/38/16
f 23/12/17 20/11/17 19/39/17 24/40/17
f 9/10/18 11/9/18 10/20/18 7/19/18
f 13/41/19 17/42/19 16/8/19 14/7/19
f 8/16/20 21/15/20 20/34/20 9/26/20
f 2/13/21 8/16/21 7/25/21 3/22/21
f 22/4/22 12/3/22 11/9/22 23/12/22
f 21/15/23 15/14/23 14/30/23 19/33/23
f 15/14/24 2/13/24 1/21/24 13/29/24
f 12/3/25 4/2/25 6/24/25 10/27/25
